<svg width="400" height="400" viewBox="0 0 400 400" fill="none" xmlns="http://www.w3.org/2000/svg">
<path d="M334.167 183.333H65.8333C57.0888 183.333 50 190.422 50 199.167V200.833C50 209.578 57.0888 216.667 65.8333 216.667H334.167C342.911 216.667 350 209.578 350 200.833V199.167C350 190.422 342.911 183.333 334.167 183.333Z" fill="black"/>
<path d="M334.167 266.667H65.8333C57.0888 266.667 50 273.755 50 282.5V284.166C50 292.911 57.0888 300 65.8333 300H334.167C342.911 300 350 292.911 350 284.166V282.5C350 273.755 342.911 266.667 334.167 266.667Z" fill="black"/>
<path d="M334.167 100H65.8333C57.0888 100 50 107.089 50 115.833V117.5C50 126.245 57.0888 133.333 65.8333 133.333H334.167C342.911 133.333 350 126.245 350 117.5V115.833C350 107.089 342.911 100 334.167 100Z" fill="black"/>
</svg>
